<svg width="263" height="568" viewBox="0 0 263 568" fill="none" xmlns="http://www.w3.org/2000/svg">
    <g clip-path="url(#clip0_1_153)">
        <mask id="mask0_1_153" style="mask-type:luminance" maskUnits="userSpaceOnUse" x="-55" y="-13" width="337" height="598">
            <path d="M281.409 -12.5029H-54.6172V584.926H281.409V-12.5029Z" fill="white"/>
        </mask>
        <g mask="url(#mask0_1_153)">
            <mask id="mask1_1_153" style="mask-type:luminance" maskUnits="userSpaceOnUse" x="-55" y="-13" width="337" height="598">
                <path d="M281.409 -12.7364H-54.6172V584.913H281.409V-12.7364Z" fill="white"/>
            </mask>
            <g mask="url(#mask1_1_153)">
                <path d="M103.919 41.9055C89.8273 60.4912 84.2399 87.637 96.9316 107.221C106.11 121.372 123.482 130.022 128.693 146.131C131.079 153.459 130.56 161.513 133.166 168.763C139.959 187.621 164.176 193.198 184.14 191.447C207.475 189.411 231.018 180.734 246.614 163.29C262.209 145.846 267.926 118.648 256.466 98.2334C248.74 84.3946 234.479 75.0563 227.557 60.7895C222.371 49.9597 221.956 37.3271 216.939 26.4195C192.761 -26.225 127.397 10.9595 103.919 41.9055Z" fill="#E8D1C5"/>
                <path d="M228.723 550.491C231.562 531.127 224.614 511.581 214.956 494.539C205.297 477.497 192.917 462.114 183.323 445.098C173.73 428.082 167.067 408.38 170.152 389.042" stroke="#E8D1C5" stroke-width="0.75" stroke-linecap="round" stroke-linejoin="round"/>
                <path d="M217.795 499.792C220.857 505.629 225.059 510.793 230.152 514.976C235.244 519.16 241.124 522.279 247.443 524.149" stroke="#E8D1C5" stroke-width="0.75" stroke-linecap="round" stroke-linejoin="round"/>
                <path d="M223.952 513.656C223.142 519.331 221.032 524.742 217.787 529.466C214.542 534.191 210.25 538.102 205.245 540.893" stroke="#E8D1C5" stroke-width="0.75" stroke-linecap="round" stroke-linejoin="round"/>
                <path d="M204.299 477.523C210.12 489.39 208.512 504.668 200.903 515.485" stroke="#E8D1C5" stroke-width="0.75" stroke-linecap="round" stroke-linejoin="round"/>
                <path d="M202.782 475.253C211.235 485.888 225.249 492.957 238.796 492.243" stroke="#E8D1C5" stroke-width="0.75" stroke-linecap="round" stroke-linejoin="round"/>
                <path d="M186.266 450.169C191.568 462.114 189.987 477.289 183.038 488.339" stroke="#E8D1C5" stroke-width="0.75" stroke-linecap="round" stroke-linejoin="round"/>
                <path d="M184.775 447.653C196.015 457.082 210.211 462.088 224.821 463.45" stroke="#E8D1C5" stroke-width="0.75" stroke-linecap="round" stroke-linejoin="round"/>
                <path d="M173.445 423.049C174.681 429.295 174.209 435.759 172.078 441.758C169.946 447.758 166.235 453.07 161.337 457.134" stroke="#E8D1C5" stroke-width="0.75" stroke-linecap="round" stroke-linejoin="round"/>
                <path d="M170.956 413.685C176.141 426.214 189.559 434.255 203.469 435.799" stroke="#E8D1C5" stroke-width="0.75" stroke-linecap="round" stroke-linejoin="round"/>
                <path d="M228.477 530.647C231.723 536.842 233.455 543.717 233.533 550.711C233.275 556.74 231.344 562.578 227.958 567.572C225.775 561.714 224.575 555.535 224.406 549.285C224.406 543.046 225.301 536.068 228.477 530.699" stroke="#E8D1C5" stroke-width="0.75" stroke-linecap="round" stroke-linejoin="round"/>
                <path d="M219.856 526.198C218.754 532.307 215.617 538.675 210.496 542.203C205.281 545.72 198.888 547.035 192.709 545.861C200.948 538.243 210.06 531.629 219.856 526.159" stroke="#E8D1C5" stroke-width="0.75" stroke-linecap="round" stroke-linejoin="round"/>
                <path d="M229.371 514.344C233.028 520.166 238.355 524.749 244.656 527.495C250.389 529.664 256.69 529.815 262.52 527.923C253.186 520.699 240.676 517.288 229.268 514.253" stroke="#E8D1C5" stroke-width="0.75" stroke-linecap="round" stroke-linejoin="round"/>
                <path d="M207.851 492.347C210.638 498.041 211.377 506.393 208.668 512.113C207.294 514.976 205.302 517.499 202.836 519.5C200.37 521.5 197.492 522.929 194.408 523.682C198.31 512.994 202.807 502.533 207.877 492.347" stroke="#E8D1C5" stroke-width="0.75" stroke-linecap="round" stroke-linejoin="round"/>
                <path d="M218.845 487.989C223.121 493.004 229.158 496.184 235.71 496.874C242.262 497.565 248.829 495.712 254.055 491.699C242.56 489.166 230.822 487.91 219.052 487.95" stroke="#E8D1C5" stroke-width="0.75" stroke-linecap="round" stroke-linejoin="round"/>
                <path d="M199.114 456.823C203.184 460.325 207.372 464.177 212.376 466.135C217.375 468.232 222.928 468.61 228.166 467.212C231.613 466 234.863 464.287 237.811 462.127C225.696 456.651 212.254 454.808 199.114 456.823Z" stroke="#E8D1C5" stroke-width="0.75" stroke-linecap="round" stroke-linejoin="round"/>
                <path d="M189.417 466.291C191.698 472.454 191.698 479.232 189.417 485.395C186.944 491.308 182.379 496.102 176.595 498.858C178.799 487.107 182.468 476.057 189.352 466.291" stroke="#E8D1C5" stroke-width="0.75" stroke-linecap="round" stroke-linejoin="round"/>
                <path d="M173.225 437.848C173.38 444.333 171.928 450.753 167.832 455.811C163.71 460.899 157.933 464.379 151.51 465.642C156.885 455.05 164.274 445.609 173.263 437.848" stroke="#E8D1C5" stroke-width="0.75" stroke-linecap="round" stroke-linejoin="round"/>
                <path d="M181.223 426.901C184.711 432.375 189.857 437.952 195.924 440.247C200.135 441.726 204.639 442.17 209.057 441.544C213.469 440.931 217.811 439.888 222.021 438.432C210.185 430.481 195.924 427.109 181.677 427.498" stroke="#E8D1C5" stroke-width="0.75" stroke-linecap="round" stroke-linejoin="round"/>
                <path d="M113.525 70.6077H113.266C50.711 70.6077 0 121.342 0 183.925V388.264C0 450.848 50.711 501.582 113.266 501.582H113.525C176.081 501.582 226.792 450.848 226.792 388.264V183.925C226.792 121.342 176.081 70.6077 113.525 70.6077Z" fill="#F7F3F0"/>
                <path d="M113.396 493.657C85.4316 493.626 58.6216 482.499 38.8479 462.716C19.0742 442.934 7.95184 416.111 7.92096 388.135V184.003C7.92096 156.01 19.0362 129.163 38.8214 109.369C58.6067 89.5746 85.4412 78.4544 113.422 78.4544C141.402 78.4544 168.237 89.5746 188.022 109.369C207.807 129.163 218.922 156.01 218.922 184.003V388.135C218.892 416.12 207.762 442.95 187.977 462.734C168.192 482.519 141.369 493.64 113.396 493.657Z" stroke="#DBC3B4" stroke-linecap="round" stroke-linejoin="round"/>
                <path d="M190.622 17.7686C190.552 13.5031 191.133 9.25178 192.346 5.16199C194.647 8.52035 196.024 12.4253 196.339 16.4846C196.582 21.0733 195.771 25.6566 193.967 29.8824C191.84 26.1948 190.689 22.0254 190.622 17.7686Z" fill="#22395E"/>
                <path d="M188.444 33.2157C182.052 29.8884 176.092 25.7897 170.697 21.0111C172.618 20.5244 174.621 20.4496 176.574 20.7916C178.526 21.1336 180.385 21.8846 182.027 22.9955C185.464 25.392 187.85 29.0184 188.691 33.1249L188.444 33.2157Z" fill="#22395E"/>
                <path d="M215.293 31.1664C209.588 36.3544 202.121 38.9483 194.991 41.3867C196.978 37.4003 200.147 34.1253 204.066 32.0095C207.579 30.3639 211.573 30.064 215.293 31.1664Z" fill="#22395E"/>
                <path d="M181.729 43.6175C182.656 45.5716 183.172 47.6952 183.245 49.857C183.319 52.0187 182.948 54.1725 182.157 56.1852L181.768 57.1579C178.269 50.3258 175.136 43.3122 172.382 36.1469C174.402 36.6057 176.293 37.5162 177.912 38.81C179.53 40.1038 180.835 41.7473 181.729 43.6175Z" fill="#22395E"/>
                <path d="M199.23 53.2151C201.285 52.9009 203.382 53.0019 205.397 53.512C207.412 54.0221 209.305 54.9311 210.963 56.1852C203.787 58.2685 196.388 59.4877 188.924 59.8168H188.781C191.257 56.3228 195.013 53.9498 199.23 53.2151Z" fill="#22395E"/>
                <path d="M195.302 73.7593C197.531 74.492 199.635 75.5638 201.538 76.9369C194.139 81.0353 185.645 82.7177 177.243 81.7487C179.72 79.2326 182.26 76.457 185.359 74.9785C188.422 73.3982 191.949 72.9658 195.302 73.7593Z" fill="#22395E"/>
                <path d="M170.36 62.4626C172.049 66.4842 172.328 70.9597 171.15 75.1601C166.599 68.7152 163.442 61.3911 161.881 53.6561C165.693 55.4495 168.711 58.5845 170.36 62.4626Z" fill="#22395E"/>
                <path d="M157.759 83.2792C160.397 86.6204 161.799 90.7722 161.726 95.0298C155.75 90.0438 150.801 83.9428 147.154 77.0666C151.33 77.7688 155.103 79.9793 157.759 83.2792Z" fill="#22395E"/>
                <path d="M184.192 91.7744C186.999 92.0572 189.767 92.6399 192.45 93.5124C185.251 99.1166 176.396 102.173 167.274 102.202C169.322 98.3112 172.174 94.8223 175.947 93.0584C178.54 91.9297 181.379 91.4876 184.192 91.7744Z" fill="#22395E"/>
                <path d="M193.552 16.6921C195.885 29.8435 192.048 43.4359 186.435 55.3681C180.821 67.3003 173.406 78.1691 167.844 90.1272C162.283 102.085 158.575 115.756 161.103 128.855" stroke="#2A4368" stroke-width="0.5" stroke-linecap="round" stroke-linejoin="round"/>
                <path d="M188.081 51.7106C189.75 47.7232 192.207 44.1137 195.303 41.0984C198.399 38.0831 202.072 35.7241 206.101 34.1625" stroke="#2A4368" stroke-width="0.5" stroke-linecap="round" stroke-linejoin="round"/>
                <path d="M191.582 42.0352C190.983 38.2684 189.539 34.6862 187.359 31.5573C185.179 28.4283 182.319 25.8338 178.994 23.9682" stroke="#2A4368" stroke-width="0.5" stroke-linecap="round" stroke-linejoin="round"/>
                <path d="M180.186 67.3393C181.772 63.0903 182.307 58.521 181.748 54.0203C181.188 49.5197 179.549 45.221 176.971 41.4904" stroke="#2A4368" stroke-width="0.5" stroke-linecap="round" stroke-linejoin="round"/>
                <path d="M179.279 68.9345C184.322 61.3991 192.969 56.1463 201.564 56.2241" stroke="#2A4368" stroke-width="0.5" stroke-linecap="round" stroke-linejoin="round"/>
                <path d="M169.569 86.5735C170.978 82.2847 171.429 77.7385 170.889 73.2562C170.349 68.7739 168.832 64.465 166.444 60.6339" stroke="#2A4368" stroke-width="0.5" stroke-linecap="round" stroke-linejoin="round"/>
                <path d="M168.687 88.3503C175.474 81.7934 184.185 77.5882 193.539 76.3533" stroke="#2A4368" stroke-width="0.5" stroke-linecap="round" stroke-linejoin="round"/>
                <path d="M162.231 105.509C162.865 101.27 162.407 96.9394 160.901 92.9267C159.395 88.9141 156.89 85.3524 153.623 82.5788" stroke="#2A4368" stroke-width="0.5" stroke-linecap="round" stroke-linejoin="round"/>
                <path d="M160.922 111.981C163.852 103.266 172.097 97.3514 180.834 95.8728" stroke="#2A4368" stroke-width="0.5" stroke-linecap="round" stroke-linejoin="round"/>
            </g>
        </g>
    </g>
    <defs>
        <clipPath id="clip0_1_153">
            <rect width="263" height="568" fill="white"/>
        </clipPath>
    </defs>
</svg>
